<svg width="58" height="58" viewBox="0 0 58 58" fill="none" xmlns="http://www.w3.org/2000/svg">
<g clip-path="url(#clip0)">
<path d="M57.9357 37.9102V44.5138C57.9357 46.7565 51.9617 48.6255 44.6187 48.6255C37.2757 48.6255 31.4262 46.8189 31.4262 44.5762V43.8286L31.3018 38.5956H31.3639C32.3596 40.5268 37.8358 42.022 44.432 42.022C51.0281 42.022 57.8112 40.1531 57.8112 37.9103H57.9357V37.9102Z" fill="#E2A63B"/>
<path d="M44.2452 13.3633V19.9046H44.1207C44.1207 22.2096 37.9601 24.0163 30.6793 24.0163C27.879 24.0785 25.0164 23.7671 22.2783 23.0818L22.1539 23.2064C20.7848 22.085 19.2291 21.2129 17.549 20.6522V20.5276L17.3623 13.6125C17.7979 15.7306 23.5852 17.4126 30.6171 17.4126C37.649 17.4126 44.1207 15.606 44.1207 13.3633H44.2452Z" fill="#F4B844"/>
<path d="M44.2451 13.4882C44.2451 15.7309 38.0844 17.5376 30.7414 17.5376C23.3984 17.5376 17.8601 15.8555 17.4245 13.7374C17.4245 13.6752 17.3623 13.5506 17.3623 13.4882C17.3623 11.2455 23.3363 9.37651 30.7416 9.37651C38.1466 9.31427 44.2451 11.1832 44.2451 13.4882Z" fill="#FEDB41"/>
<path d="M31.3634 38.594L31.3012 37.2234L31.1768 31.6167C31.6123 33.7348 37.3997 35.4168 44.4315 35.4168C51.4634 35.4168 57.6863 33.6102 57.873 31.4297H57.9352V37.9087H57.8107C57.8107 40.1514 51.7744 42.0204 44.4314 42.0204C37.0885 42.0203 32.3592 40.5253 31.3634 38.594Z" fill="#F4B844"/>
<path d="M22.4648 42.7685C24.145 41.2111 25.4519 39.2175 26.1363 37.0371H26.4474C27.8165 37.1617 29.1855 37.224 30.679 37.224H31.3013V38.5945L31.4257 43.8276H30.7412C28.0031 43.8898 25.3273 43.5784 22.6515 42.9555L22.4648 42.7685Z" fill="#E2A63B"/>
<path d="M31.3642 31.1184V31.4298L31.4886 37.2236H30.8663C29.3106 37.2236 27.8793 37.1613 26.5103 37.0367H26.1992C26.6348 35.7285 26.8214 34.358 26.8214 32.9874C26.8214 32.0529 26.697 31.1807 26.5103 30.3086H26.8214C28.1282 30.4332 29.4351 30.4954 30.8663 30.4954L31.4263 30.8069C31.3642 30.9314 31.3642 31.056 31.3642 31.1184Z" fill="#F4B844"/>
<path d="M22.2786 23.0835C25.0167 23.7688 27.8792 24.0802 30.6796 24.018C37.9603 24.018 44.121 22.2113 44.121 19.9062H44.2455V27.2574C37.4626 27.2574 31.9242 28.8772 31.2397 30.933L30.6796 30.6215C29.3105 30.6215 28.0038 30.5593 26.7592 30.4346H26.4481C25.888 27.5689 24.3945 25.0147 22.1543 23.1457L22.2786 23.0835Z" fill="#E2A63B"/>
<path d="M26.5722 30.4327C25.95 27.5669 24.3942 24.9505 22.154 23.0192C20.7849 21.7733 19.1669 20.9011 17.4246 20.4027C16.18 19.9666 14.811 19.7798 13.5042 19.7798C6.09891 19.7173 0.0626614 25.6357 0.000485972 33.0491C-0.0616894 40.4625 5.84997 46.5055 13.2553 46.5677C16.6779 46.5677 19.9138 45.3217 22.4651 43.0167C24.2076 41.3969 25.5143 39.3411 26.1988 37.0983C26.6344 35.7901 26.8211 34.4818 26.8211 33.1112C26.8212 32.2393 26.5722 31.3048 26.5722 30.4327Z" fill="#FEDB41"/>
<path d="M18.5493 26.9528C18.4918 27.173 18.293 27.3266 18.0655 27.3266H16.999C16.6042 27.3266 16.3538 27.7721 16.4927 28.1417C16.5708 28.3495 16.6355 28.5669 16.6869 28.7939C16.7416 29.0358 16.9495 29.2184 17.1975 29.2184H18.3889C18.7175 29.2184 18.9568 29.53 18.8719 29.8475L18.5396 31.0905C18.4811 31.3092 18.2829 31.4613 18.0565 31.4613H17.1832C16.9365 31.4613 16.7292 31.642 16.6742 31.8825C16.4614 32.8121 16.0393 33.5667 15.4079 34.1461C14.8385 34.6686 14.0732 35.0674 13.1121 35.3425C12.7454 35.4475 12.5871 35.8982 12.8329 36.1899L17.2023 41.375C17.22 41.3959 17.2297 41.4224 17.2297 41.4498C17.2297 41.514 17.1776 41.566 17.1135 41.566H13.715C13.5686 41.566 13.4295 41.5018 13.3345 41.3904L8.12598 35.2819C8.04946 35.1922 8.00713 35.0783 8.00646 34.9604L7.99904 33.6521C7.99746 33.3748 8.22178 33.1492 8.49903 33.1492H10.678C11.7887 33.1492 12.5697 32.7928 13.021 32.0801C13.2017 31.7947 12.9592 31.4613 12.6214 31.4613H8.3727C8.04502 31.4613 7.80591 31.1514 7.88906 30.8345L8.21513 29.5915C8.2728 29.3716 8.47149 29.2184 8.69877 29.2184H12.4937C12.8482 29.2184 13.0862 28.8534 12.8503 28.5887C12.4068 28.0907 11.7242 27.8361 10.8024 27.825H8.36037C8.03653 27.825 7.79813 27.5219 7.87446 27.2072L8.29954 25.4544C8.35393 25.2302 8.55471 25.0723 8.78546 25.0723H18.3929C18.7203 25.0723 18.9594 25.3817 18.8767 25.6985L18.5493 26.9528Z" fill="#E2A63B"/>
<path d="M57.874 31.3051V31.4297C57.6873 33.6102 51.6511 35.4168 44.4325 35.4168C37.214 35.4168 31.6133 33.7348 31.1777 31.6167V31.3052C31.1777 31.1806 31.1777 31.056 31.2399 30.9314C31.9244 28.8755 37.4628 27.2559 44.2458 27.2559H44.4324C51.7755 27.2557 57.874 29.0624 57.874 31.3051Z" fill="#FEDB41"/>
</g>
<defs>
<clipPath id="clip0">
<rect width="57.9356" height="58" fill="white"/>
</clipPath>
</defs>
</svg>
