<svg width="57" height="55" viewBox="0 0 57 55" fill="none" xmlns="http://www.w3.org/2000/svg">
<path d="M10.9225 0C10.9225 0 10.2093 2.7428 8.0791 4.04071C8.0791 4.04071 10.2618 3.69981 12.1265 6.41447C12.1265 6.41447 12.6977 3.96565 14.4636 2.36751C14.4636 2.36751 11.8178 2.33936 10.9225 0Z" fill="#ECEEF1"/>
<path d="M38.0725 0.09375C38.0725 0.09375 36.3436 1.42293 34.4326 1.18524C34.4326 1.18524 35.9269 2.03279 35.7879 4.59106C36.7578 3.84629 37.9092 3.38253 39.1191 3.24937C39.1191 3.24937 37.5168 1.95147 38.0725 0.09375Z" fill="#ECEEF1"/>
<path d="M22.005 36.9924V40.8079C22.005 42.5374 17.2445 43.9354 11.3787 43.9198C5.51286 43.9042 0.761563 42.4999 0.76465 40.7735V36.958L22.005 36.9924Z" fill="#FFD200"/>
<path d="M21.9972 41.5891V45.4046C21.9972 47.1341 17.2367 48.5321 11.3709 48.5321C5.50505 48.5321 0.75375 47.1122 0.756837 45.3827V41.5703L21.9972 41.5891Z" fill="#FFD200"/>
<path opacity="0.08" d="M21.9972 41.5891V45.4046C21.9972 47.1341 17.2367 48.5321 11.3709 48.5321C5.50505 48.5321 0.75375 47.1122 0.756837 45.3827V41.5703L21.9972 41.5891Z" fill="#2B2F32"/>
<path d="M21.7961 41.4679C21.7991 39.7545 17.0909 38.3572 11.2801 38.3469C5.46932 38.3366 0.756344 39.7173 0.753392 41.4307C0.75044 43.1442 5.45863 44.5415 11.2694 44.5518C17.0802 44.5621 21.7932 43.1814 21.7961 41.4679Z" fill="#FFD200"/>
<path opacity="0.08" d="M22.005 36.9924V40.8079C22.005 42.5374 17.2445 43.9354 11.3787 43.9198C5.51286 43.9042 0.761563 42.4999 0.76465 40.7735V36.958L22.005 36.9924Z" fill="#2B2F32"/>
<path d="M21.2404 32.435V36.2474C21.2404 37.9769 16.4798 39.3749 10.614 39.3749C4.74821 39.3749 -0.00308576 37.955 1.50366e-06 36.2286V32.4131L21.2404 32.435Z" fill="#FFD200"/>
<path d="M22.0208 27.8391V31.6546C22.0208 33.3841 17.2602 34.7821 11.3944 34.7821C5.52864 34.7821 0.777344 33.3622 0.777344 31.6327V27.8203L22.0208 27.8391Z" fill="#FFD200"/>
<path d="M21.8049 36.9133C21.8079 35.1998 17.0997 33.8025 11.2889 33.7922C5.47811 33.7819 0.765133 35.1626 0.762181 36.8761C0.759229 38.5895 5.46742 39.9868 11.2782 39.9971C17.089 40.0074 21.802 38.6267 21.8049 36.9133Z" fill="#FFD200"/>
<path opacity="0.08" d="M21.2404 32.435V36.2474C21.2404 37.9769 16.4798 39.3749 10.614 39.3749C4.74821 39.3749 -0.00308576 37.955 1.50366e-06 36.2286V32.4131L21.2404 32.435Z" fill="#2B2F32"/>
<path d="M21.0481 32.3976C21.0511 30.6842 16.3429 29.2869 10.5321 29.2766C4.72127 29.2663 0.00829725 30.647 0.00534518 32.3604C0.00239312 34.0739 4.71058 35.4712 10.5214 35.4815C16.3322 35.4918 21.0451 34.1111 21.0481 32.3976Z" fill="#FFD200"/>
<path opacity="0.08" d="M22.0208 27.8391V31.6546C22.0208 33.3841 17.2602 34.7821 11.3944 34.7821C5.52864 34.7821 0.777344 33.3622 0.777344 31.6327V27.8203L22.0208 27.8391Z" fill="#2B2F32"/>
<path d="M22.0224 27.8433C22.0253 26.1299 17.2715 24.7324 11.4045 24.7221C5.53739 24.7117 0.778805 26.0923 0.775853 27.8057C0.772901 29.5192 5.5267 30.9166 11.3938 30.927C17.2608 30.9374 22.0194 29.5567 22.0224 27.8433Z" fill="#FFD200"/>
<path d="M3.41211 22.9778V26.7933C3.41211 28.5228 8.16958 29.9208 14.0354 29.9051C19.9012 29.8895 24.6556 28.4853 24.6525 26.7558V22.9434L3.41211 22.9778Z" fill="#FFD200"/>
<path d="M2.62988 18.3979V22.2134C2.62988 23.9398 7.39044 25.3409 13.2562 25.3221C19.1221 25.3034 23.8733 23.9054 23.8703 22.1759V18.3604L2.62988 18.3979Z" fill="#FFD200"/>
<path opacity="0.08" d="M3.41211 22.9778V26.7933C3.41211 28.5228 8.16958 29.9208 14.0354 29.9051C19.9012 29.8895 24.6556 28.4853 24.6525 26.7558V22.9434L3.41211 22.9778Z" fill="#2B2F32"/>
<path d="M14.1346 26.0154C19.9454 26.0051 24.6536 24.6078 24.6507 22.8944C24.6477 21.1809 19.9347 19.8002 14.1239 19.8105C8.31312 19.8208 3.60493 21.2181 3.60788 22.9316C3.61084 24.645 8.32381 26.0257 14.1346 26.0154Z" fill="#FFD200"/>
<path opacity="0.08" d="M2.62988 18.3979V22.2134C2.62988 23.9398 7.39044 25.3409 13.2562 25.3221C19.1221 25.3034 23.8733 23.9054 23.8703 22.1759V18.3604L2.62988 18.3979Z" fill="#2B2F32"/>
<path d="M13.2629 21.4635C19.1299 21.4531 23.8837 20.0557 23.8808 18.3422C23.8778 16.6288 19.1192 15.2482 13.2522 15.2586C7.3851 15.2689 2.6313 16.6664 2.63425 18.3798C2.6372 20.0932 7.39579 21.4739 13.2629 21.4635Z" fill="#FFD200"/>
<path d="M48.2072 38.0112V41.8236C48.2072 43.5531 43.4466 44.951 37.5808 44.9354C31.715 44.9198 26.9637 43.5187 26.9668 41.7892V37.9736L48.2072 38.0112Z" fill="#FFD200"/>
<path d="M48.1984 42.6078V46.4202C48.1984 48.1497 43.4378 49.5477 37.5751 49.5477C31.7124 49.5477 26.9549 48.1278 26.958 46.4015V42.5859L48.1984 42.6078Z" fill="#FFD200"/>
<path opacity="0.08" d="M48.1984 42.6078V46.4202C48.1984 48.1497 43.4378 49.5477 37.5751 49.5477C31.7124 49.5477 26.9549 48.1278 26.958 46.4015V42.5859L48.1984 42.6078Z" fill="#2B2F32"/>
<path d="M48.0003 42.4865C48.0032 40.7731 43.295 39.3757 37.4842 39.3654C31.6734 39.3552 26.9604 40.7359 26.9575 42.4493C26.9545 44.1627 31.6627 45.5601 37.4735 45.5704C43.2843 45.5806 47.9973 44.2 48.0003 42.4865Z" fill="#FFD200"/>
<path opacity="0.08" d="M48.2072 38.0112V41.8236C48.2072 43.5531 43.4466 44.951 37.5808 44.9354C31.715 44.9198 26.9637 43.5187 26.9668 41.7892V37.9736L48.2072 38.0112Z" fill="#2B2F32"/>
<path d="M47.4328 33.4516V37.2671C47.4328 38.9935 42.6722 40.3946 36.8064 40.379C30.9406 40.3633 26.1893 38.9591 26.1924 37.2296V33.4141L47.4328 33.4516Z" fill="#FFD200"/>
<path d="M48.2238 28.8578V32.6702C48.2238 34.3997 43.4632 35.7977 37.5974 35.7977C31.7316 35.7977 26.9803 34.3778 26.9834 32.6515V28.8359L48.2238 28.8578Z" fill="#FFD200"/>
<path d="M48.009 37.9308C48.012 36.2174 43.3038 34.8201 37.493 34.8098C31.6822 34.7995 26.9692 36.1802 26.9663 37.8936C26.9633 39.6071 31.6715 41.0044 37.4823 41.0147C43.2931 41.025 48.0061 39.6443 48.009 37.9308Z" fill="#FFD200"/>
<path opacity="0.08" d="M47.4328 33.4516V37.2671C47.4328 38.9935 42.6722 40.3946 36.8064 40.379C30.9406 40.3633 26.1893 38.9591 26.1924 37.2296V33.4141L47.4328 33.4516Z" fill="#2B2F32"/>
<path d="M47.2512 33.4123C47.2542 31.6989 42.546 30.3015 36.7352 30.2912C30.9244 30.281 26.2114 31.6616 26.2085 33.3751C26.2055 35.0885 30.9137 36.4859 36.7245 36.4961C42.5353 36.5064 47.2483 35.1257 47.2512 33.4123Z" fill="#FFD200"/>
<path opacity="0.08" d="M48.2238 28.8578V32.6702C48.2238 34.3997 43.4632 35.7977 37.5974 35.7977C31.7316 35.7977 26.9803 34.3778 26.9834 32.6515V28.8359L48.2238 28.8578Z" fill="#2B2F32"/>
<path opacity="0.08" d="M42.5581 34.2646C42.5581 34.2646 34.3058 36.8167 35.6303 49.4799C35.6303 49.4799 41.0114 49.6613 43.5645 48.9982C45.8491 48.404 42.5581 34.2646 42.5581 34.2646Z" fill="#2B2F32"/>
<path d="M48.2284 28.858C48.2314 27.1445 43.4776 25.7471 37.6105 25.7367C31.7434 25.7263 26.9849 27.107 26.9819 28.8204C26.979 30.5338 31.7328 31.9313 37.5998 31.9416C43.4669 31.952 48.2255 30.5714 48.2284 28.858Z" fill="#FFD200"/>
<path d="M46.932 20.1682V23.7804C46.932 25.4161 42.4246 26.7359 36.8706 26.7265C31.3167 26.7171 26.8123 25.3817 26.8154 23.746V20.1338L46.932 20.1682Z" fill="#FFD200"/>
<path d="M46.9262 24.5227V28.1349C46.9262 29.7706 42.4188 31.0904 36.8617 31.081C31.3046 31.0716 26.8065 29.7362 26.8096 28.1005V24.4883L46.9262 24.5227Z" fill="#FFD200"/>
<path opacity="0.08" d="M46.9262 24.5227V28.1349C46.9262 29.7706 42.4188 31.0904 36.8617 31.081C31.3046 31.0716 26.8065 29.7362 26.8096 28.1005V24.4883L46.9262 24.5227Z" fill="#2B2F32"/>
<path d="M46.7401 24.4042C46.7429 22.7823 42.2834 21.4596 36.7795 21.4499C31.2756 21.4402 26.8116 22.7471 26.8088 24.369C26.806 25.9909 31.2655 27.3136 36.7694 27.3233C42.2733 27.333 46.7373 26.0261 46.7401 24.4042Z" fill="#FFD200"/>
<path opacity="0.08" d="M46.932 20.1682V23.7804C46.932 25.4161 42.4246 26.7359 36.8706 26.7265C31.3167 26.7171 26.8123 25.3817 26.8154 23.746V20.1338L46.932 20.1682Z" fill="#2B2F32"/>
<path d="M46.1986 15.8498V19.4621C46.1986 21.1009 41.6881 22.4176 36.1342 22.4082C30.5802 22.3988 26.0789 21.0665 26.082 19.4277V15.8154L46.1986 15.8498Z" fill="#FFD200"/>
<path d="M46.9467 11.4971V15.1125C46.9467 16.7481 42.4393 18.0679 36.8822 18.0586C31.3251 18.0492 26.827 16.7137 26.8301 15.0781V11.4658L46.9467 11.4971Z" fill="#FFD200"/>
<path d="M46.7489 20.0917C46.7517 18.4698 42.2922 17.1471 36.7883 17.1374C31.2844 17.1277 26.8204 18.4346 26.8176 20.0565C26.8148 21.6784 31.2743 23.0011 36.7782 23.0108C42.2821 23.0205 46.7461 21.7136 46.7489 20.0917Z" fill="#FFD200"/>
<path opacity="0.08" d="M46.1986 15.8498V19.4621C46.1986 21.1009 41.6881 22.4176 36.1342 22.4082C30.5802 22.3988 26.0789 21.0665 26.082 19.4277V15.8154L46.1986 15.8498Z" fill="#2B2F32"/>
<path d="M46.0311 15.8114C46.0339 14.1895 41.5744 12.8668 36.0705 12.8571C30.5666 12.8474 26.1026 14.1543 26.0998 15.7762C26.097 17.3981 30.5565 18.7208 36.0604 18.7305C41.5643 18.7402 46.0283 17.4333 46.0311 15.8114Z" fill="#FFD200"/>
<path opacity="0.08" d="M46.9467 11.4971V15.1125C46.9467 16.7481 42.4393 18.0679 36.8822 18.0586C31.3251 18.0492 26.827 16.7137 26.8301 15.0781V11.4658L46.9467 11.4971Z" fill="#2B2F32"/>
<path d="M46.952 11.5002C46.9548 9.87835 42.4525 8.55557 36.8957 8.54575C31.339 8.53592 26.8321 9.84277 26.8293 11.4647C26.8265 13.0866 31.3289 14.4093 36.8856 14.4192C42.4423 14.429 46.9492 13.1221 46.952 11.5002Z" fill="#FFD200"/>
<path d="M35.9269 39.0185H1.80957L4.69925 35.6689H33.0373L35.9269 39.0185Z" fill="#004092"/>
<path opacity="0.44" d="M35.9269 39.0185H1.80957L4.69925 35.6689H33.0373L35.9269 39.0185Z" fill="white"/>
<path d="M35.9238 39.0186H1.80957V50.5152H35.9238V39.0186Z" fill="#004092"/>
<path d="M21.3851 35.6689H16.3467L14.5869 39.0185H23.1479L21.3851 35.6689Z" fill="#ECEEF1"/>
<path opacity="0.08" d="M35.9238 41.2021H1.80957V41.7276H35.9238V41.2021Z" fill="#2B2F32"/>
<path opacity="0.08" d="M35.9238 43.5654H1.80957V44.0908H35.9238V43.5654Z" fill="#2B2F32"/>
<path opacity="0.08" d="M35.9238 45.9307H1.80957V46.4561H35.9238V45.9307Z" fill="#2B2F32"/>
<path opacity="0.08" d="M35.9238 48.2988H1.80957V48.8242H35.9238V48.2988Z" fill="#2B2F32"/>
<path d="M23.1448 39.0186H14.5869V50.5152H23.1448V39.0186Z" fill="#ECEEF1"/>
<path d="M56.6942 44.6719L26.9639 27.7178L31.107 26.2354L55.7989 40.3184L56.6942 44.6719Z" fill="#004092"/>
<path opacity="0.44" d="M56.6942 44.6719L26.9639 27.7178L31.107 26.2354L55.7989 40.3184L56.6942 44.6719Z" fill="white"/>
<path d="M56.6896 44.6723L26.9629 27.7178L21.3952 37.7358L51.1218 54.6903L56.6896 44.6723Z" fill="#004092"/>
<path d="M45.6439 34.5284L41.2569 32.0264L38.0986 34.0686L45.5575 38.3251L45.6439 34.5284Z" fill="#ECEEF1"/>
<path opacity="0.08" d="M55.6349 46.5775L25.9082 29.623L25.6537 30.0809L55.3804 47.0354L55.6349 46.5775Z" fill="#2B2F32"/>
<path opacity="0.08" d="M54.4884 48.6381L24.7617 31.6836L24.5073 32.1414L54.2339 49.0959L54.4884 48.6381Z" fill="#2B2F32"/>
<path opacity="0.08" d="M53.3438 50.6967L23.6172 33.7422L23.3627 34.2L53.0894 51.1545L53.3438 50.6967Z" fill="#2B2F32"/>
<path opacity="0.08" d="M52.1974 52.7582L22.4707 35.8037L22.2162 36.2616L51.9429 53.216L52.1974 52.7582Z" fill="#2B2F32"/>
<path d="M45.5559 38.3216L38.0986 34.0684L32.5309 44.0864L39.9881 48.3396L45.5559 38.3216Z" fill="#ECEEF1"/>
</svg>
