<svg width="77" height="64" viewBox="0 0 77 64" fill="none" xmlns="http://www.w3.org/2000/svg">
  <path
    d="M48.0744 55.9459V59.9644C48.0744 61.7874 43.0566 63.2609 36.8737 63.2609C30.6909 63.2609 25.6828 61.7643 25.686 59.9446V55.9229L48.0744 55.9459Z"
    fill="#FFD200" />
  <path opacity="0.08"
    d="M48.0744 55.9459V59.9644C48.0744 61.7874 43.0566 63.2609 36.8737 63.2609C30.6909 63.2609 25.6828 61.7643 25.686 59.9446V55.9229L48.0744 55.9459Z"
    fill="#2B2F32" />
  <path
    d="M48.0812 55.9462C48.0843 54.1402 43.0736 52.6672 36.8894 52.6563C30.7052 52.6453 25.6894 54.1006 25.6863 55.9066C25.6832 57.7127 30.6939 59.1856 36.8781 59.1966C43.0623 59.2075 48.0781 57.7523 48.0812 55.9462Z"
    fill="#FFD200" />
  <path
    d="M46.7142 46.7882V50.5957C46.7142 52.3198 41.9631 53.7109 36.109 53.701C30.2548 53.6911 25.507 52.2835 25.5103 50.5594V46.752L46.7142 46.7882Z"
    fill="#FFD200" />
  <path
    d="M46.7078 51.3771V55.1846C46.7078 56.9087 41.9568 58.2998 36.0994 58.2899C30.2419 58.28 25.5007 56.8724 25.5039 55.1483V51.3408L46.7078 51.3771Z"
    fill="#FFD200" />
  <path opacity="0.08"
    d="M46.7078 51.3771V55.1846C46.7078 56.9087 41.9568 58.2998 36.0994 58.2899C30.2419 58.28 25.5007 56.8724 25.5039 55.1483V51.3408L46.7078 51.3771Z"
    fill="#2B2F32" />
  <path
    d="M46.5111 51.2523C46.514 49.5427 41.8134 48.1485 36.0121 48.1383C30.2107 48.128 25.5053 49.5056 25.5024 51.2151C25.4995 52.9247 30.2 54.3189 36.0014 54.3291C41.8028 54.3394 46.5081 52.9618 46.5111 51.2523Z"
    fill="#FFD200" />
  <path opacity="0.08"
    d="M46.7142 46.7882V50.5957C46.7142 52.3198 41.9631 53.7109 36.109 53.701C30.2548 53.6911 25.507 52.2835 25.5103 50.5594V46.752L46.7142 46.7882Z"
    fill="#2B2F32" />
  <path
    d="M45.9397 42.2355V46.043C45.9397 47.7703 41.1855 49.1582 35.3313 49.1483C29.4771 49.1384 24.7326 47.7341 24.7358 46.0067V42.1992L45.9397 42.2355Z"
    fill="#FFD200" />
  <path
    d="M46.7308 37.6472V41.458C46.7308 43.1821 41.9798 44.5732 36.1223 44.5633C30.2649 44.5534 25.5236 43.1458 25.5269 41.4217V37.6143L46.7308 37.6472Z"
    fill="#FFD200" />
  <path
    d="M21.2108 56.116V59.9268C21.2108 61.6508 16.4597 63.042 10.6023 63.0321C4.74486 63.0222 0.00358348 61.6146 0.00683761 59.8905V56.083L21.2108 56.116Z"
    fill="#FFD200" />
  <path
    d="M46.5208 46.7054C46.5238 44.9958 41.8232 43.6016 36.0218 43.5914C30.2204 43.5811 25.5151 44.9587 25.5122 46.6682C25.5092 48.3778 30.2098 49.772 36.0112 49.7822C41.8125 49.7925 46.5179 48.4149 46.5208 46.7054Z"
    fill="#FFD200" />
  <path opacity="0.08"
    d="M45.9397 42.2355V46.043C45.9397 47.7703 41.1855 49.1582 35.3313 49.1483C29.4771 49.1384 24.7326 47.7341 24.7358 46.0067V42.1992L45.9397 42.2355Z"
    fill="#2B2F32" />
  <path
    d="M45.7645 42.1937C45.7674 40.4841 41.0668 39.0899 35.2655 39.0797C29.4641 39.0694 24.7588 40.447 24.7558 42.1565C24.7529 43.8661 29.4534 45.2603 35.2548 45.2705C41.0562 45.2808 45.7615 43.9032 45.7645 42.1937Z"
    fill="#FFD200" />
  <path opacity="0.08"
    d="M46.7308 37.6472V41.458C46.7308 43.1821 41.9798 44.5732 36.1223 44.5633C30.2649 44.5534 25.5236 43.1458 25.5269 41.4217V37.6143L46.7308 37.6472Z"
    fill="#2B2F32" />
  <path opacity="0.08"
    d="M21.2108 56.116V59.9268C21.2108 61.6508 16.4597 63.042 10.6023 63.0321C4.74486 63.0222 0.00358348 61.6146 0.00683761 59.8905V56.083L21.2108 56.116Z"
    fill="#2B2F32" />
  <path
    d="M46.7358 37.6501C46.7387 35.9405 41.993 34.5462 36.1359 34.5359C30.2788 34.5255 25.5283 35.903 25.5254 37.6126C25.5224 39.3221 30.2681 40.7164 36.1252 40.7268C41.9823 40.7371 46.7328 39.3596 46.7358 37.6501Z"
    fill="#FFD200" />
  <path
    d="M21.2157 56.1198C21.2187 54.4102 16.473 53.016 10.6159 53.0056C4.75878 52.9953 0.00827845 54.3727 0.00533307 56.0823C0.00238769 57.7919 4.74811 59.1861 10.6052 59.1965C16.4623 59.2068 21.2128 57.8294 21.2157 56.1198Z"
    fill="#FFD200" />
  <path
    d="M63 1.51471C62.9968 1.42746 62.9869 1.34057 62.9702 1.2548V1.20607C62.9492 1.12074 62.9215 1.03711 62.8875 0.955909C62.8801 0.935837 62.8713 0.916297 62.8611 0.897429C62.8239 0.817524 62.7808 0.740425 62.7321 0.66676L62.7023 0.631023C62.649 0.555808 62.5881 0.486138 62.5204 0.423096C62.4515 0.360719 62.3774 0.304203 62.2988 0.254156L62.2525 0.224915C62.175 0.180114 62.0943 0.14102 62.011 0.107956L61.9515 0.0852139C61.8667 0.0545389 61.7793 0.0316982 61.6902 0.0169881H61.6571C61.5719 0.0033138 61.4854 -0.00212668 61.3991 0.000744088H61.3561C61.2867 0.000744088 61.2139 0.000744535 61.1444 0.0202377L50.4113 1.75513C50.1928 1.781 49.9819 1.85004 49.7913 1.95809C49.6007 2.06614 49.4343 2.21097 49.3022 2.38385C49.1701 2.55674 49.075 2.75409 49.0226 2.96404C48.9703 3.17398 48.9617 3.39217 48.9974 3.60546C49.0332 3.81875 49.1125 4.02272 49.2306 4.20509C49.3488 4.38747 49.5033 4.54447 49.6848 4.66664C49.8663 4.78881 50.0712 4.87362 50.287 4.91596C50.5028 4.95831 50.7251 4.95731 50.9405 4.91302L56.8181 3.90587L33.4598 27.915L22.5117 21.0176C22.2136 20.8304 21.8615 20.7437 21.5088 20.7707C21.1561 20.7977 20.8219 20.9368 20.5569 21.1671L5.55032 34.2015C5.22662 34.4824 5.02978 34.8781 5.00311 35.3015C4.97644 35.725 5.12211 36.1415 5.40809 36.4595C5.69407 36.7774 6.09692 36.9707 6.52803 36.9969C6.95913 37.0231 7.38317 36.8801 7.70687 36.5992L21.8005 24.3737L32.8413 31.3295C33.1593 31.5304 33.5385 31.6163 33.914 31.5724C34.2894 31.5286 34.6375 31.3577 34.8986 31.0891L59.2789 6.02738L58.7166 11.5277C58.6732 11.9495 58.8022 12.3709 59.0751 12.6993C59.348 13.0277 59.7426 13.2362 60.172 13.2788H60.3374C60.7411 13.2783 61.1302 13.1304 61.4291 12.8638C61.728 12.5972 61.9154 12.231 61.9548 11.8363L62.9901 1.70964C62.9969 1.64488 63.0002 1.57982 63 1.51471Z"
    fill="#4DC380" />
  <path
    d="M74.2063 50.9279V54.9496C74.2063 56.7726 69.1884 58.2462 63.0056 58.2297C56.8227 58.2132 51.8146 56.733 51.8179 54.9134V50.8916L74.2063 50.9279Z"
    fill="#FFD200" />
  <path
    d="M74.1965 55.7747V59.7964C74.1965 61.6194 69.1787 63.0929 62.9958 63.0929C56.813 63.0929 51.8049 61.5963 51.8081 59.7733V55.7549L74.1965 55.7747Z"
    fill="#FFD200" />
  <path
    d="M73.3992 46.1246V50.1431C73.3992 51.9661 68.3813 53.4396 62.1985 53.4396C56.0156 53.4396 51.0075 51.943 51.0107 50.1233V46.1016L73.3992 46.1246Z"
    fill="#FFD200" />
  <path
    d="M74.2222 41.2795V45.3013C74.2222 47.1243 69.2044 48.5978 63.0215 48.5978C56.8387 48.5978 51.8306 47.1012 51.8306 45.2782V41.2598L74.2222 41.2795Z"
    fill="#FFD200" />
  <path
    d="M54.6064 36.1564V40.1781C54.6064 42.0011 59.6211 43.4747 65.8039 43.4582C71.9868 43.4417 76.9981 41.9616 76.9949 40.1386V36.1201L54.6064 36.1564Z"
    fill="#FFD200" />
  <path
    d="M53.7832 31.3306V35.3523C53.7832 37.172 58.8011 38.6489 64.9839 38.6291C71.1668 38.6093 76.1749 37.1358 76.1716 35.3128V31.291L53.7832 31.3306Z"
    fill="#FFD200" />
  <path
    d="M74.1965 55.6956V59.7173C74.1965 61.5403 69.1787 63.0138 62.9958 63.0138C56.813 63.0138 51.8049 61.5172 51.8081 59.6942V55.6758L74.1965 55.6956Z"
    fill="#EBC200" />
  <path
    d="M73.9856 55.5669C73.9887 53.7609 69.026 52.288 62.9011 52.2772C56.7763 52.2663 51.8086 53.7216 51.8054 55.5277C51.8023 57.3338 56.765 58.8066 62.8899 58.8175C69.0147 58.8283 73.9824 57.373 73.9856 55.5669Z"
    fill="#FFD200" />
  <path
    d="M74.2063 50.8488V54.8705C74.2063 56.6935 69.1884 58.1671 63.0056 58.1506C56.8227 58.1341 51.8146 56.6539 51.8179 54.8343V50.8125L74.2063 50.8488Z"
    fill="#EBC200" />
  <path
    d="M73.9953 50.7652C73.9984 48.9591 69.0358 47.4862 62.9109 47.4754C56.786 47.4646 51.8183 48.9199 51.8152 50.7259C51.8121 52.532 56.7748 54.0049 62.8996 54.0157C69.0245 54.0265 73.9922 52.5712 73.9953 50.7652Z"
    fill="#FFD200" />
  <path
    d="M73.3992 46.0455V50.064C73.3992 51.887 68.3813 53.3605 62.1985 53.3605C56.0156 53.3605 51.0075 51.8639 51.0107 50.0442V46.0225L73.3992 46.0455Z"
    fill="#EBC200" />
  <path
    d="M73.1965 46.0064C73.1996 44.2003 68.2369 42.7275 62.1121 42.7166C55.9872 42.7058 51.0195 44.1611 51.0164 45.9672C51.0133 47.7732 55.9759 49.2461 62.1008 49.2569C68.2257 49.2677 73.1934 47.8124 73.1965 46.0064Z"
    fill="#FFD200" />
  <path
    d="M74.2227 41.2004V45.2222C74.2227 47.0452 69.2049 48.5187 63.022 48.5187C56.8392 48.5187 51.8311 47.0221 51.8311 45.1991V41.1807L74.2227 41.2004Z"
    fill="#EBC200" />
  <path
    d="M74.2233 41.206C74.2264 39.3999 69.2156 37.9269 63.0315 37.916C56.8473 37.9051 51.8315 39.3603 51.8284 41.1664C51.8253 42.9724 56.836 44.4454 63.0202 44.4563C69.2044 44.4673 74.2202 43.012 74.2233 41.206Z"
    fill="#FFD200" />
  <path
    d="M54.6069 36.0773V40.099C54.6069 41.922 59.6216 43.3956 65.8044 43.3791C71.9873 43.3626 76.9986 41.8825 76.9954 40.0595V36.041L54.6069 36.0773Z"
    fill="#EBC200" />
  <path
    d="M65.9099 39.2795C72.0348 39.2687 76.9975 37.7958 76.9944 35.9897C76.9913 34.1837 72.0235 32.7284 65.8987 32.7392C59.7738 32.75 54.8111 34.2229 54.8142 36.0289C54.8173 37.835 59.7851 39.2903 65.9099 39.2795Z"
    fill="#FFD200" />
  <path
    d="M53.7832 31.2515V35.2732C53.7832 37.0929 58.8011 38.5698 64.9839 38.55C71.1668 38.5302 76.1749 37.0567 76.1716 35.2337V31.2119L53.7832 31.2515Z"
    fill="#EBC200" />
  <path
    d="M64.9905 34.4814C71.1746 34.4705 76.1854 32.9975 76.1823 31.1915C76.1792 29.3854 71.1634 27.9302 64.9792 27.9411C58.795 27.9521 53.7843 29.425 53.7874 31.2311C53.7905 33.0371 58.8063 34.4924 64.9905 34.4814Z"
    fill="#FFD200" />
</svg>